# xmcd
#
# Track frame offsets:
#	150
#	11287
#	35544
#	56908
#	74728
#	105863
#
# Disc length: 1624 seconds
#
# Revision: 0
# Processed by: cddbd v1.5.2PL0 Copyright (c) Steve Scherf et al.
# Submitted via: dBpowerAMP V4.0
#
DISCID=49065606
DTITLE=Little T and The Gang - Demo 2006
DYEAR=2006
DGENRE=Blues
TTITLE0=Gutbucket
TTITLE1=Fool for your stockings
TTITLE2=Straight from the heart jive
TTITLE3=What's up with you
TTITLE4=She's so strong
TTITLE5=Copydog
EXTD=
EXTT0=
EXTT1=
EXTT2=
EXTT3=
EXTT4=
EXTT5=
PLAYORDER=
